# xmcd
#
# Track frame offsets: 
#        150
#        25316
#        42669
#        69992
#        94404
#        114232
#        139169
#        153515
#        167553
#        183039
#
# Disc length: 2647 seconds
#
# Revision: 0
# Processed by: cddbd v1.4PL0 Copyright (c) Steve Scherf et al.
# Submitted via: ExactAudioCopy v0.90b3
#
DISCID=800a550a
DTITLE=Rebecca Martin - Middlehope
DYEAR=2001
DGENRE=
TTITLE0=The Sweetest Sounds
TTITLE1=A Fine Spring Morning
TTITLE2=The Midnight Sun
TTITLE3=Dindi
TTITLE4=How Do You Say Auf Wiedersehn?
TTITLE5=Bewitched
TTITLE6=Then A Wall Came Up Inside Me
TTITLE7=One Flight Down
TTITLE8=Ridin' High
TTITLE9=Where Is Love?
EXTD=
EXTT0=
EXTT1=
EXTT2=
EXTT3=
EXTT4=
EXTT5=
EXTT6=
EXTT7=
EXTT8=
EXTT9=
PLAYORDER=
